<svg xmlns="http://www.w3.org/2000/svg" viewBox="0 0 400 291.76"><defs><style>.cls-1{fill:#3f245c;}.cls-2{fill:#0f9ea0;}</style></defs><g id="Laag_2" data-name="Laag 2"><path class="cls-1" d="M162.29,192.05c1.43-2.15,2.15-2.39,2.87-2.39a1.38,1.38,0,0,1,1.43,1.43c0,1-1,2.15-1.67,3.35-6.68,11-24.58,30.78-40.57,30.78-13.13,0-23.39-8.11-23.39-23.86a58.23,58.23,0,0,1,1-11c-13.13,15.27-38.19,47-65.16,47C17,237.39,0,225.94,0,194.2,0,139.3,62.05,72.72,114.56,72.72c23.63,0,36.75,12.88,36.75,31.5,0,19.09-12.17,35.08-25.29,35.08-4.54,0-8.12-2.14-8.12-4.05,0-.72.72-1.44,2.63-2.87,9.06-6,21.48-18.85,21.48-33.17,0-10-6.69-16-20-16-47.74,0-103.1,65.15-103.1,118.85,0,18.14,7.39,26.49,19.57,26.49,17.89,0,40.57-21.24,65.15-53,18.62-24.1,24.58-27.21,28.64-27.45,2.39-.23,3.58,1.2,3.58,2.39C136,152,131,157,127,164.84c-5.49,9.55-8.59,22.67-8.59,36.52,0,10.5,5.73,14.56,12.65,14.56C142.72,215.92,157.52,198.73,162.29,192.05Z"/><path class="cls-1" d="M188.78,149.09c4.3,0,10,6.2,10,9.07,0,1.43-1.43,2.38-4.06,6a192.84,192.84,0,0,0-25.3,50.6C186.87,189.9,213.84,162,229.36,162c5.25,0,11.45,3.58,11.45,10.5,0,9.31-11.69,22-11.69,32.46,0,5.72,3.1,7.63,7.63,7.63,10.75,0,23.63-14.55,27.93-20.52,1.43-2.15,2.15-2.39,2.86-2.39a1.37,1.37,0,0,1,1.43,1.43c0,1-1,2.15-1.67,3.35-6.2,9.78-22.67,27.44-37.47,27.44-9.54,0-16.94-6.2-16.94-15.27,0-11.94,13.36-27.93,13.36-32.7a2.5,2.5,0,0,0-2.62-2.62c-6.21,0-31.74,16.46-57,60.85-1,1.67-1.67,2.15-2.87,2.15-2.62,0-9.54-3.1-9.54-10.26C154.18,209.23,176.37,149.09,188.78,149.09Z"/><path class="cls-1" d="M311.93,151.71c11.46,0,15.51,4.78,15.51,11.46,0,11.7-21.71,28.88-49.88,35.08a43.36,43.36,0,0,0-3.34,15.28c0,7.16,3.58,10.5,11.7,10.5,20.52,0,44.15-22.67,52.5-32.46,1.67-2.15,2.39-2.15,3.11-2.15s1,.48,1,1.2c0,.95-.24,1.67-1.67,3.58-9.78,13.6-36.28,37.71-59.67,37.71-14.79,0-23.62-7.64-23.62-23.39C257.52,182.5,290.93,151.71,311.93,151.71Zm3.58,5.49c-10.74.24-27.21,18.38-35.8,36.28,21.72-6,38.9-25.78,38.9-32.94C318.61,158.16,317.42,157.2,315.51,157.2Z"/><path class="cls-1" d="M353.7,229.52c12.65,0,34.37-25.54,42-37,1.44-2.15,2.15-2.39,2.87-2.39a1.38,1.38,0,0,1,1.43,1.43c0,1-1,2.15-1.67,3.34-11.46,18.38-32,43-49.17,43-10.26,0-18.61-7.64-18.61-23.63,0-13.84,8.11-33.89,19.33-54.41h-1.43c-10.74,0-14.8-7.64-14.8-10a1.09,1.09,0,0,1,1-1.19c1.68,0,4.06,2.15,11.7,2.15a71.46,71.46,0,0,0,9.31-.72l2.38-4c11-18.14,20.05-28.88,26.74-28.88,3.81,0,9.3,5.25,9.3,7.64,0,1.43-1.43,2.14-4.29,5.72-4.54,5.73-8.83,11.22-12.65,16.47,4.53-.48,8.83-.95,12.17-.95,6.44,0,9.55,1.19,9.55,2.62s-2.39,3.58-3.58,3.58a50.9,50.9,0,0,0-6-.48,61.91,61.91,0,0,0-17.42,2.87c-19.1,27.92-27.21,49.4-27.21,63C344.63,225.94,348,229.52,353.7,229.52Z"/><path class="cls-2" d="M87.38,291.23H82v-29.6H92.14c6.54,0,10.55,3.12,10.55,9.08,0,6.76-4.81,10.15-11.53,10.15H87.38Zm3.21-14.69c3.87,0,6.49-1.34,6.49-5.3,0-4.58-2.62-5.29-7-5.29H87.38v10.59Z"/><path class="cls-2" d="M111.68,261.63h17.84v4.72H117.11v7.43h10.63v4.72H117.11v8h12.73v4.72H111.68Z"/><path class="cls-2" d="M138.78,261.63h9.66c8.5,0,13.88,4.5,13.88,13.75,0,11.66-6.5,15.85-13.66,15.85h-9.88ZM144.21,287h4.54c5,0,8.1-3.65,8.1-10.77,0-8-3.88-10.23-8.68-10.23h-4Z"/><path class="cls-2" d="M172,291.23v-29.6h5.43v29.6Z"/><path class="cls-2" d="M207.49,284.15l2.8,3.56a14,14,0,0,1-10.06,4.05c-8,0-13.17-5-13.17-15.17,0-11.62,7.12-15.49,13.44-15.49a11.92,11.92,0,0,1,10.15,5.52l-3.87,2.8c-1.87-2.36-3.88-3.74-6.55-3.74-4.58,0-7.61,3.83-7.61,10.55s2.5,11,7.93,11C203,287.26,205.26,286.15,207.49,284.15Z"/><path class="cls-2" d="M224,261.63v19.94c0,4.36,2.45,5.65,5.83,5.65s5.56-1.78,5.56-5.43V261.63h5.43v20.92c0,5.83-4.54,9.21-11.17,9.21-7.29,0-11-2.94-11-9.92V261.63Z"/><path class="cls-2" d="M256.75,291.23h-5.43v-29.6h9.92c6.55,0,10.68,2.14,10.68,8.19a8,8,0,0,1-5.11,7.83c1.2.45,1.78,1.2,2.44,2.72l4.9,10.86h-5.79l-4.27-9.35c-.62-1.38-1.38-2.31-2.93-2.31h-4.41Zm4.45-15.89c3.2,0,5.21-1.74,5.21-5.12,0-3.78-2.32-4.27-6.55-4.27h-3.11v9.39Z"/><path class="cls-2" d="M282.25,261.63h17.84v4.72H287.68v7.43h10.63v4.72H287.68v8H300.4v4.72H282.25Z"/><path class="cls-2" d="M326,55.4a18.18,18.18,0,0,1-.22,10.43,25.64,25.64,0,0,1-5.14,9.34,29.16,29.16,0,0,1-3.91,3.63,22.84,22.84,0,0,1-2.16,1.53c-.76.45-1.53.87-2.3,1.28a15.09,15.09,0,0,1-2.4,1.06c-.81.3-1.63.59-2.45.85a21.76,21.76,0,0,1-2.55.53c-.85.14-1.71.27-2.57.33,1.3-1.22,2.64-2.19,3.94-3.2.63-.53,1.25-1.06,1.88-1.55.31-.26.63-.5.95-.74s.59-.54.89-.79c.59-.52,1.18-1,1.79-1.54s1.11-1.08,1.68-1.6a19.16,19.16,0,0,0,1.62-1.63l1.56-1.66a50.68,50.68,0,0,0,5.3-7.45A51.58,51.58,0,0,0,326,55.4Z"/><path class="cls-2" d="M352.34,39.66c-2.13-1.7-4.22-3.44-6.22-5.31a46.79,46.79,0,0,1-5.59-6.07,21.49,21.49,0,0,1-2.23-3.58,16.81,16.81,0,0,1-1.43-4.07,17.6,17.6,0,0,1,.39-8.67,16,16,0,0,1,1.86-4.05,14.86,14.86,0,0,1,3-3.43A13.91,13.91,0,0,1,346,2.08a16.72,16.72,0,0,1,2.2-.74A16.27,16.27,0,0,1,350.49,1a14.28,14.28,0,0,1,9.07,2.16,18.78,18.78,0,0,1,6.21,6.8h-4.33A19.29,19.29,0,0,1,367,3a15.05,15.05,0,0,1,8.88-3,16.33,16.33,0,0,1,9,2.6,15.78,15.78,0,0,1,3.58,3.14,17.18,17.18,0,0,1,2.58,4,19.58,19.58,0,0,1,1.49,4.45A22.12,22.12,0,0,1,393,18.8a19.1,19.1,0,0,1-.74,4.71,22.67,22.67,0,0,1-1.82,4.3,39.75,39.75,0,0,1-5.1,6.91c-1.83,2.06-3.75,4-5.7,5.78q-5.82,5.46-12.1,10.37-3.14,2.45-6.35,4.77c-1,.74-2,1.48-2.93,2.22s-1.81,1.52-2.65,2.33a29.76,29.76,0,0,0-7.66,10.92,19.11,19.11,0,0,0-1.17,6.1l0,.77c0,.26,0,.52.05.77a11.64,11.64,0,0,0,.16,1.55l.66,3.89a26.2,26.2,0,0,1-.55,9.5,28.51,28.51,0,0,1-3.75,8.59,37.9,37.9,0,0,1-13,12.11l-1,.55c-.37.2-.82.41-1.23.61a12.23,12.23,0,0,1-1.23.5c-.41.15-.82.31-1.2.41a33,33,0,0,1-4.51,1c-2.88.45-5.59.64-8.27.8-5.33.29-10.47.42-15.56.68a140.25,140.25,0,0,0-29.65,4.26,97.06,97.06,0,0,0-13.87,4.89l-3.72,1.56c-1.27.5-2.49,1.1-3.8,1.52-2.6.9-5.16,1.85-7.86,2.52S233,135,230.3,135.49l-4.18.51-1,.12-1.06,0-2.12.09a60.6,60.6,0,0,1-16.85-1.78,72.49,72.49,0,0,1-15.53-6.09c-1.2-.62-2.39-1.28-3.56-1.93l-1.73-1-.89-.51-1-.59a32.12,32.12,0,0,1-7-5.84,34,34,0,0,1-5-7.49c-.32-.64-.63-1.28-.91-1.91l-.22-.47-.12-.27-.2-.53a7.46,7.46,0,0,1-.47-2.26A8.07,8.07,0,0,1,172.71,98a8.34,8.34,0,0,1,2.16-.78,9,9,0,0,1,1.13-.15h1l1.95.13c1.29.09,2.53.16,3.77.21a61,61,0,0,0,7.18-.1c1.16-.11,2.31-.24,3.43-.46.57-.1,1.09-.22,1.69-.36l1.85-.46c1.23-.3,2.46-.61,3.67-1s2.44-.67,3.63-1c2.41-.7,4.71-1.54,7-2.43a49.17,49.17,0,0,0,6.41-3.21c4-2.44,7.7-5.78,11.56-9.27,1.91-1.73,3.85-3.49,5.88-5.23s4-3.39,6.06-5Q253.33,59,266,49.91c8.45-6.09,17-12.09,25.68-17.78,4.37-2.83,8.72-5.68,13.19-8.34s8.81-5.46,13.08-8.43C314,18.76,309.86,22,305.63,25s-8.33,6.16-12.45,9.31c-8.18,6.36-16.32,12.78-24.31,19.37s-16,13.22-23.63,20.09c-1.92,1.71-3.82,3.44-5.67,5.19s-3.65,3.56-5.49,5.4A81.14,81.14,0,0,1,221.74,95a58,58,0,0,1-7.36,4c-2.53,1.1-5.07,2.12-7.61,3-1.28.45-2.55.85-3.82,1.24s-2.55.78-3.82,1.14l-1.91.55c-.66.18-1.4.38-2.1.52a42.63,42.63,0,0,1-4.26.73,57.94,57.94,0,0,1-8.37.37c-1.36,0-2.71-.07-4-.13l-1.93-.09c-.12,0,0,0,0,0h.07a.49.49,0,0,0,.17,0,1.12,1.12,0,0,0,.35-.12,1.19,1.19,0,0,0,.66-1.15,1.29,1.29,0,0,0-.06-.36l0-.08a1,1,0,0,0,.08.17l.2.41c.26.55.53,1.08.8,1.58a24.05,24.05,0,0,0,3.73,5.35,22.23,22.23,0,0,0,5,4l.72.41.81.45,1.67.91c1.11.58,2.21,1.16,3.32,1.71a64.53,64.53,0,0,0,13.49,5,50.42,50.42,0,0,0,14,1.32l1.77-.09.89,0,.88-.12,3.55-.46c2.35-.51,4.71-.91,7-1.64,2.35-.57,4.64-1.45,6.95-2.25,1.17-.36,2.28-.93,3.42-1.38l3.45-1.46a106.06,106.06,0,0,1,15.45-5.51,149.55,149.55,0,0,1,31.89-4.5c5.27-.26,10.52-.31,15.55-.54,2.51-.12,5-.27,7.23-.61a24.06,24.06,0,0,0,3.1-.65,4.37,4.37,0,0,0,.64-.21,3.52,3.52,0,0,0,.58-.22l.52-.24.73-.42A28.65,28.65,0,0,0,335,96.82,17.08,17.08,0,0,0,338,85.33l-.57-3.79a22.81,22.81,0,0,1-.18-2.34c0-.39,0-.78,0-1.17l0-1.17a28.46,28.46,0,0,1,2-9.08,38,38,0,0,1,10.3-14.18c1.06-1,2.16-1.84,3.3-2.69s2.23-1.57,3.35-2.36c2.12-1.43,4.21-2.87,6.26-4.37q6.17-4.47,11.88-9.47c1.9-1.66,3.74-3.36,5.42-5.11a34.48,34.48,0,0,0,4.36-5.43,16.29,16.29,0,0,0,1.36-2.79,12.82,12.82,0,0,0,.61-2.93,15.37,15.37,0,0,0-.09-3.11,13.61,13.61,0,0,0-.83-2.95,11.27,11.27,0,0,0-1.52-2.63,9.86,9.86,0,0,0-2.15-2.08,10.17,10.17,0,0,0-5.63-1.93,9.52,9.52,0,0,0-5.73,1.6,14.28,14.28,0,0,0-4.35,4.86l-2.35,4.12-2-4.12a14.27,14.27,0,0,0-4.32-5.43,10,10,0,0,0-6.39-1.93A12.92,12.92,0,0,0,349,5a12.28,12.28,0,0,0-1.68.46,10.54,10.54,0,0,0-3.11,1.64,11.17,11.17,0,0,0-2.55,2.54,12.73,12.73,0,0,0-1.78,3.21,15.16,15.16,0,0,0-.89,7.41,18.26,18.26,0,0,0,2.79,7.18C344.6,32,348.49,35.84,352.34,39.66Z"/></g></svg>